<?xml version="1.0" encoding="utf-8"?>
<!-- Generator: Adobe Illustrator 23.0.6, SVG Export Plug-In . SVG Version: 6.00 Build 0)  -->
<svg version="1.1" id="Calque_1" xmlns="http://www.w3.org/2000/svg" xmlns:xlink="http://www.w3.org/1999/xlink" x="0px" y="0px"
	 viewBox="0 0 234.4 103.5" style="enable-background:new 0 0 234.4 103.5;" xml:space="preserve">
<style type="text/css">
	.st0{fill:#2D77A0;}
	.st1{fill:#BF2B3D;}
</style>
<title>logo inline</title>
<g>
	<path class="st0" d="M8,71l31.3-68h17.4L26.2,70.2h45.7v15.1H8V71z M48.6,43.1h15.8v57.3H48.6V43.1z"/>
	<path d="M94.6,94c-4.8-4.9-7.3-11.6-7.3-20.3V29.4c0-8.7,2.4-15.5,7.3-20.4c4.9-4.8,11.9-7.3,21.1-7.3c9.3,0,16.3,2.4,21.2,7.2
		c4.8,4.8,7.3,11.6,7.3,20.4v44.2c0,8.7-2.4,15.5-7.3,20.4c-4.9,4.8-11.9,7.3-21.1,7.3C106.5,101.3,99.4,98.8,94.6,94z M125.2,82.2
		c2-2.5,3-6.1,3-10.9V31.8c0-4.7-1-8.4-3-10.9c-2-2.5-5.2-3.8-9.4-3.8s-7.4,1.3-9.4,3.8c-2,2.5-3,6.1-3,10.9v39.5
		c0,4.7,1,8.4,3,10.9s5.2,3.8,9.4,3.8S123.2,84.7,125.2,82.2z"/>
	<path class="st1" d="M161.6,71l31.3-68h17.4l-30.5,67.2h45.7v15.1h-63.9V71z M202.2,43.1h15.8v57.3h-15.8V43.1z"/>
</g>
</svg>
