<svg xmlns="http://www.w3.org/2000/svg" viewBox="0 0 438.41 103.49"><title>logo inline b&amp;amp;w</title><g id="Calque_2" data-name="Calque 2"><g id="Calque_1-2" data-name="Calque 1"><path d="M17.25,94a19.39,19.39,0,0,1-8.36-8.45A28.7,28.7,0,0,1,6,72.15V62.91A28.16,28.16,0,0,1,8.89,49.7a19.29,19.29,0,0,1,8.36-8.36,28.3,28.3,0,0,1,13.27-2.88,28.28,28.28,0,0,1,13.26,2.88,19.29,19.29,0,0,1,8.36,8.36A28.16,28.16,0,0,1,55,62.91v9.41a28.28,28.28,0,0,1-2.88,13.26A19.46,19.46,0,0,1,43.78,94a28.16,28.16,0,0,1-13.26,2.9A28.18,28.18,0,0,1,17.25,94ZM37.52,79.78Q40,77.13,40,72.32V62.91q0-4.75-2.51-7.38a9.32,9.32,0,0,0-7.06-2.63,9.14,9.14,0,0,0-7,2.63Q21,58.16,21,62.91v9.41q0,4.8,2.46,7.46a9.06,9.06,0,0,0,7,2.65A9.26,9.26,0,0,0,37.52,79.78Z" transform="translate(-6.02 -16.24)"/><path d="M68.69,39.28h15V96.05h-15ZM101.5,61.65a8.53,8.53,0,0,0-2.38-6.45,9.33,9.33,0,0,0-6.75-2.3,8.58,8.58,0,0,0-6.43,2.33,9,9,0,0,0-2.27,6.53L82.52,49.18a21.37,21.37,0,0,1,6.16-8,14.61,14.61,0,0,1,9-2.68q9,0,13.89,6t4.92,17.09V96.05h-15Z" transform="translate(-6.02 -16.24)"/><path d="M146.23,77.29a4.23,4.23,0,0,0,1.18,3.2,4.66,4.66,0,0,0,3.36,1.12h2.52V96.05h-7.66q-6.84,0-10.61-3.94T131.25,81V16.53h15Z" transform="translate(-6.02 -16.24)"/><path d="M157.66,39.28h14.11l19.09,49.33L181.4,100.7Zm52.45,0-25.27,70.06a18.13,18.13,0,0,1-3.52,6.15,12,12,0,0,1-5.2,3.26,25.63,25.63,0,0,1-7.63,1h-3.33V105.18h3.33a7.12,7.12,0,0,0,4-1.06,6.48,6.48,0,0,0,2.44-3.48L196,39.28Z" transform="translate(-6.02 -16.24)"/><path d="M262.59,77a4.22,4.22,0,0,0,1.17,3.2,4.7,4.7,0,0,0,3.37,1.12h2.51V95.76H262q-6.84,0-10.61-3.94t-3.78-11.1V16.24h15Z" transform="translate(-6.02 -16.24)"/><path d="M289.63,93.68a19.46,19.46,0,0,1-8.37-8.45,28.85,28.85,0,0,1-2.87-13.37V62.62a28.25,28.25,0,0,1,2.87-13.21A19.44,19.44,0,0,1,289.63,41a32.07,32.07,0,0,1,26.52,0,19.34,19.34,0,0,1,8.37,8.37,28.13,28.13,0,0,1,2.87,13.21V72a28.3,28.3,0,0,1-2.87,13.27,19.43,19.43,0,0,1-8.37,8.39,31.77,31.77,0,0,1-26.52,0Zm20.26-14.19q2.52-2.65,2.52-7.47v-9.4c0-3.17-.84-5.64-2.52-7.39a9.29,9.29,0,0,0-7.05-2.62,9.12,9.12,0,0,0-7,2.62c-1.66,1.75-2.49,4.22-2.49,7.39V72q0,4.82,2.46,7.47a9.06,9.06,0,0,0,7,2.65A9.24,9.24,0,0,0,309.89,79.49Z" transform="translate(-6.02 -16.24)"/><path d="M380,60.05V74.48H341.06V60.05Z" transform="translate(-6.02 -16.24)"/><path d="M388.75,39h30.57v12.8H388.75Zm6-7.71q0-7.55,3.47-11.29t10.69-3.75h10.39V29.59H413a2.74,2.74,0,0,0-2.41,1.2,5.48,5.48,0,0,0-.82,3.12V95.76h-15Z" transform="translate(-6.02 -16.24)"/><path d="M429.44,16.24h15v15h-15Zm0,22.75h15V95.76h-15Z" transform="translate(-6.02 -16.24)"/></g></g></svg>