<svg xmlns="http://www.w3.org/2000/svg" viewBox="0 0 204.09 201.04"><defs><style>.cls-1{fill:#2d77a0;}.cls-2{fill:#bf2b3d;}</style></defs><title>square logo</title><g id="Calque_2" data-name="Calque 2"><g id="Calque_1-2" data-name="Calque 1"><path d="M17.25,93.68a19.39,19.39,0,0,1-8.36-8.45A28.72,28.72,0,0,1,6,71.86V62.62A28.13,28.13,0,0,1,8.89,49.41,19.37,19.37,0,0,1,17.25,41a28.42,28.42,0,0,1,13.27-2.87A28.41,28.41,0,0,1,43.78,41a19.37,19.37,0,0,1,8.36,8.37A28.13,28.13,0,0,1,55,62.62V72a28.3,28.3,0,0,1-2.88,13.27,19.46,19.46,0,0,1-8.36,8.39,28.16,28.16,0,0,1-13.26,2.9A28.18,28.18,0,0,1,17.25,93.68ZM37.52,79.49Q40,76.84,40,72v-9.4c0-3.17-.84-5.64-2.51-7.39a9.32,9.32,0,0,0-7.06-2.62,9.14,9.14,0,0,0-7,2.62C21.83,57,21,59.45,21,62.62V72q0,4.82,2.46,7.47a9.06,9.06,0,0,0,7,2.65A9.26,9.26,0,0,0,37.52,79.49Z" transform="translate(-6.02 -16.24)"/><path d="M68.69,39h15V95.76h-15ZM101.5,61.36a8.53,8.53,0,0,0-2.38-6.45,9.33,9.33,0,0,0-6.75-2.3,8.57,8.57,0,0,0-6.43,2.32,9,9,0,0,0-2.27,6.54L82.52,48.89a21.37,21.37,0,0,1,6.16-8,14.54,14.54,0,0,1,9-2.68q9,0,13.89,6t4.92,17.09V95.76h-15Z" transform="translate(-6.02 -16.24)"/><path d="M146.23,77a4.24,4.24,0,0,0,1.18,3.2,4.66,4.66,0,0,0,3.36,1.12h2.52V95.76h-7.66q-6.84,0-10.61-3.94c-2.51-2.62-3.77-6.33-3.77-11.1V16.24h15Z" transform="translate(-6.02 -16.24)"/><path d="M157.66,39h14.11l19.09,49.33-9.46,12.09Zm52.45,0-25.27,70.06a18.23,18.23,0,0,1-3.52,6.15,11.87,11.87,0,0,1-5.2,3.25,25.28,25.28,0,0,1-7.63,1h-3.33V104.89h3.33a7,7,0,0,0,4-1.07,6.45,6.45,0,0,0,2.44-3.47L196,39Z" transform="translate(-6.02 -16.24)"/><path class="cls-1" d="M23.59,197.71a4.24,4.24,0,0,0,1.17,3.2A4.74,4.74,0,0,0,28.13,202h2.51v14.43H23q-6.84,0-10.61-3.93T8.6,201.43V137h15Z" transform="translate(-6.02 -16.24)"/><path class="cls-1" d="M50.63,214.39a19.52,19.52,0,0,1-8.37-8.45,28.85,28.85,0,0,1-2.87-13.37v-9.25a28.21,28.21,0,0,1,2.87-13.2,19.34,19.34,0,0,1,8.37-8.37,28.41,28.41,0,0,1,13.26-2.87,28.35,28.35,0,0,1,13.26,2.87,19.23,19.23,0,0,1,8.37,8.37,28.09,28.09,0,0,1,2.87,13.2v9.41A28.23,28.23,0,0,1,85.52,206a19.46,19.46,0,0,1-8.37,8.4,28.11,28.11,0,0,1-13.26,2.9A28.16,28.16,0,0,1,50.63,214.39ZM70.89,200.2q2.52-2.65,2.52-7.47v-9.41q0-4.75-2.52-7.38a9.29,9.29,0,0,0-7-2.62,9.12,9.12,0,0,0-7,2.62q-2.49,2.63-2.49,7.38v9.41q0,4.82,2.46,7.47a9.1,9.1,0,0,0,7,2.65A9.27,9.27,0,0,0,70.89,200.2Z" transform="translate(-6.02 -16.24)"/><path d="M141,180.75v14.44H102.06V180.75Z" transform="translate(-6.02 -16.24)"/><path class="cls-2" d="M149.75,159.7h30.57v12.8H149.75Zm6-7.71q0-7.55,3.47-11.29T169.93,137h10.39v13.34H174a2.72,2.72,0,0,0-2.41,1.21,5.46,5.46,0,0,0-.82,3.11v61.85h-15Z" transform="translate(-6.02 -16.24)"/><path class="cls-2" d="M190.44,137h15v15h-15Zm0,22.75h15v56.76h-15Z" transform="translate(-6.02 -16.24)"/></g></g></svg>